<svg id="Category-New-Each--Streamline-Carbon" xmlns="http://www.w3.org/2000/svg" viewBox="0 0 16 16" height="16" width="16">
  <desc>
    Category New Each Streamline Icon: https://streamlinehq.com
  </desc>
  <defs></defs>
  <title>category--new-each</title>
  <path d="M14.5 5h-2.5v1h2.5v3h-3.5v1h1.5v1.071a2 2 0 1 0 1 0V10h1a1.00135 1.00135 0 0 0 1 -1v-3a1.00115 1.00115 0 0 0 -1 -1Zm-0.5 8a1 1 0 1 1 -1 -1 1.00135 1.00135 0 0 1 1 1Z" fill="#000000" stroke-width="0.5"></path>
  <path d="M9.5 3h-2.5v1h2.5v3h-3.5v1h1.5v3.071a2 2 0 1 0 1 0V8h1a1.00115 1.00115 0 0 0 1 -1V4a1.00115 1.00115 0 0 0 -1 -1Zm-0.5 10a1 1 0 1 1 -1 -1 1.00135 1.00135 0 0 1 1 1Z" fill="#000000" stroke-width="0.5"></path>
  <path d="M4.5 1H1.5a1.001 1.001 0 0 0 -1 1v3a1.001 1.001 0 0 0 1 1h1v5.071a2 2 0 1 0 1 0V6h1a1.001 1.001 0 0 0 1 -1V2a1.001 1.001 0 0 0 -1 -1ZM4 13a1 1 0 1 1 -1 -1 1.00115 1.00115 0 0 1 1 1ZM1.5 5V2h3l0.00075 3Z" fill="#000000" stroke-width="0.5"></path>
  <path id="_Transparent_Rectangle_" d="M0 0h16v16H0Z" fill="none" stroke-width="0.5"></path>
</svg>