<svg id="Data-Regular--Streamline-Carbon" xmlns="http://www.w3.org/2000/svg" viewBox="0 0 16 16" height="16" width="16">
  <desc>
    Data Regular Streamline Icon: https://streamlinehq.com
  </desc>
  <defs></defs>
  <path d="M13.5 12c-0.2311 0 -0.4474 0.05665 -0.64295 0.1499l-2.41445 -2.41455c0.3495 -0.4905 0.55735 -1.0884 0.55735 -1.73535 0 -1.6543 -1.34585 -3 -3 -3 -0.64685 0 -1.24485 0.208 -1.73545 0.55735L3.85005 3.14305c0.09325 -0.19555 0.1499 -0.41185 0.1499 -0.64305 0 -0.82835 -0.67165 -1.5 -1.5 -1.5s-1.5 0.67165 -1.5 1.5 0.67165 1.5 1.5 1.5c0.2311 0 0.4474 -0.05665 0.64295 -0.1499l2.41445 2.41455C5.20785 6.75515 5 7.35305 5 8c0 1.6543 1.34585 3 3 3 0.64685 0 1.24485 -0.208 1.73545 -0.55735l2.41445 2.4143C12.05665 13.0525 12 13.2688 12 13.5c0 0.82835 0.67165 1.5 1.5 1.5s1.5 -0.67165 1.5 -1.5 -0.67165 -1.5 -1.5 -1.5Zm-5.5 -2c-1.1028 0 -2 -0.8972 -2 -2s0.8972 -2 2 -2 2 0.8972 2 2 -0.8972 2 -2 2Z" fill="#000000" stroke-width="0.5"></path>
  <path id="_Transparent_Rectangle_" d="M0 0h16v16H0Z" fill="none" stroke-width="0.5"></path>
</svg>