<svg id="Charging-Station--Streamline-Carbon" xmlns="http://www.w3.org/2000/svg" viewBox="0 0 16 16"><desc>Charging Station Streamline Icon: https://streamlinehq.com</desc><defs/><title>charging-station</title><path d="m5.9285 10.757 -0.857 -0.514L6.117 8.5l-2.5 0 1.9545 -3.257 0.857 0.514L5.383 7.5l2.5 0 -1.9545 3.257z" fill="#000000" stroke-width="0.5"/><path d="M15 3.5h-0.5V2h-1v1.5h-0.5v3h0.5v5.75a0.75 0.75 0 0 1 -1.5 0V8a0.5 0.5 0 0 0 -0.5 -0.5h-2V2.5a0.5 0.5 0 0 0 -0.5 -0.5H2.5a0.5 0.5 0 0 0 -0.5 0.5v10.5H1v1h9.5v-1h-1v-4.5h1.5v3.75a1.75 1.75 0 0 0 3.5 0V6.5h0.5ZM8.5 13H3V3h5.5Z" fill="#000000" stroke-width="0.5"/><path id="_Transparent_Rectangle_" d="M0 0h16v16H0Z" fill="none" stroke-width="0.5"/></svg>