<svg id="Chip--Streamline-Carbon" xmlns="http://www.w3.org/2000/svg" viewBox="0 0 16 16"><desc>Chip Streamline Icon: https://streamlinehq.com</desc><defs/><title>chip</title><path d="M5.5 5.5v5h5V5.5Zm4 4h-3v-3h3Z" fill="#000000" stroke-width="0.5"/><path d="M15 6.5v-1h-2V4a1 1 0 0 0 -1 -1h-1.5V1h-1v2h-3V1h-1v2H4a1 1 0 0 0 -1 1v1.5H1v1h2v3H1v1h2v1.5a1 1 0 0 0 1 1h1.5v2h1v-2h3v2h1v-2h1.5a1 1 0 0 0 1 -1v-1.5h2v-1h-2v-3Zm-3 5.5H4V4h8Z" fill="#000000" stroke-width="0.5"/><path id="_Transparent_Rectangle_" d="M0 0h16v16H0Z" fill="none" stroke-width="0.5"/></svg>