<svg id="Load-Balancer-Pool--Streamline-Carbon" xmlns="http://www.w3.org/2000/svg" viewBox="0 0 16 16"><desc>Load Balancer Pool Streamline Icon: https://streamlinehq.com</desc><defs/><path d="M5 7.5h6v1H5Z" fill="#000000" stroke-width="0.5"/><path d="M4.35 3.1426A1.48325 1.48325 0 0 0 4.5 2.5a1.5 1.5 0 1 0 -1.5 1.5 1.48 1.48 0 0 0 0.6426 -0.1504L5 5.20705V6.5h1V4.79295ZM3 3a0.5 0.5 0 1 1 0.5 -0.5 0.50045 0.50045 0 0 1 -0.5 0.5Z" fill="#000000" stroke-width="0.5"/><path d="M9.5 2.5a1.5 1.5 0 1 0 -2 1.4077V6.5h1V3.90795A1.49785 1.49785 0 0 0 9.5 2.5Zm-1.5 0.5a0.5 0.5 0 1 1 0.5 -0.5 0.50045 0.50045 0 0 1 -0.5 0.5Z" fill="#000000" stroke-width="0.5"/><path d="M13 1a1.50165 1.50165 0 0 0 -1.5 1.5 1.48325 1.48325 0 0 0 0.15 0.6426L10 4.79295V6.5h1v-1.29295l1.3574 -1.35745A1.48 1.48 0 0 0 13 4a1.5 1.5 0 0 0 0 -3Zm0 2a0.5 0.5 0 1 1 0.5 -0.5 0.50045 0.50045 0 0 1 -0.5 0.5Z" fill="#000000" stroke-width="0.5"/><path d="M6 9.5h-1v1.29295l-1.3573 1.35745A1.48045 1.48045 0 0 0 3 12a1.5 1.5 0 1 0 1.5 1.5 1.48325 1.48325 0 0 0 -0.15 -0.6426l1.65 -1.65035Zm-3 4.5a0.5 0.5 0 1 1 0.5 -0.5 0.50045 0.50045 0 0 1 -0.5 0.5Z" fill="#000000" stroke-width="0.5"/><path d="M8.5 12.09205V9.5h-1v2.59205a1.5 1.5 0 1 0 1 0ZM8 14a0.5 0.5 0 1 1 0.5 -0.5 0.50045 0.50045 0 0 1 -0.5 0.5Z" fill="#000000" stroke-width="0.5"/><path d="M13 12a1.48045 1.48045 0 0 0 -0.6427 0.1504L11 10.79295V9.5h-1v1.70705l1.65 1.65035A1.48325 1.48325 0 0 0 11.5 13.5a1.5 1.5 0 1 0 1.5 -1.5Zm0 2a0.5 0.5 0 1 1 0.5 -0.5 0.50045 0.50045 0 0 1 -0.5 0.5Z" fill="#000000" stroke-width="0.5"/><path id="_Transparent_Rectangle_" d="M0 0h16v16H0Z" fill="none" stroke-width="0.5"/></svg>