<svg xmlns="http://www.w3.org/2000/svg" viewBox="0 0 24 24" fill="none" stroke="#000000" stroke-linecap="round" stroke-linejoin="round" id="Test-Pipe-Off--Streamline-Tabler"><desc>Test Pipe Off Streamline Icon: https://streamlinehq.com</desc><path d="M20 8.04A803.533 803.533 0 0 0 16 12m-2 2c-1.085 1.085 -3.125 3.14 -6.122 6.164a2.857 2.857 0 0 1 -4.041 -4.04C6.855 13.124 8.91 11.087 10 10m2 -2c0.872 -0.872 2.191 -2.205 3.959 -4" stroke-width="2"/><path d="M7 13h6" stroke-width="2"/><path d="m19 15 1.5 1.6m-0.74 3.173a2 2 0 0 1 -2.612 -2.608" stroke-width="2"/><path d="m15 3 6 6" stroke-width="2"/><path d="m3 3 18 18" stroke-width="2"/></svg>