<svg xmlns="http://www.w3.org/2000/svg" fill="none" viewBox="0 0 24 24" id="Settings-Power--Streamline-Sharp-Material"><desc>Settings Power Streamline Icon: https://streamlinehq.com</desc><path fill="#000000" d="M11.2499 10.375V0.974975h1.5V10.375h-1.5Zm0.7375 6.725c-2.14165 0 -3.9625 -0.74835 -5.4625 -2.245 -1.5 -1.49685 -2.25 -3.3235 -2.25 -5.48 0 -1.2667 0.295835 -2.44585 0.8875 -3.5375 0.59165 -1.09169 1.42085 -2.037525 2.4875 -2.837525l1.075 1.075c-0.9 0.633335 -1.61665 1.404175 -2.15 2.312525 -0.53335 0.9083 -0.8 1.90355 -0.8 2.98575 0 1.7178 0.60835 3.18505 1.825 4.40175 1.21665 1.21665 2.68335 1.825 4.4 1.825 1.71665 0 3.18335 -0.60835 4.4 -1.825 1.21665 -1.2167 1.825 -2.68395 1.825 -4.40175 0 -1.0822 -0.25835 -2.1066 -0.775 -3.07325 -0.51665 -0.9667 -1.225 -1.70836 -2.125 -2.225025l1.075 -1.075c1.08335 0.733335 1.90835 1.6625 2.475 2.787525 0.56665 1.125 0.85 2.32105 0.85 3.58825 0 2.1495 -0.75415 3.97425 -2.2625 5.47425 -1.50835 1.5 -3.33335 2.25 -5.475 2.25Zm-4.2375 5.925c-0.29035 0 -0.53375 -0.09825 -0.73025 -0.29475 -0.1965 -0.19635 -0.29475 -0.43975 -0.29475 -0.73025 0 -0.29035 0.09825 -0.5338 0.29475 -0.73025 0.1965 -0.1965 0.4399 -0.29475 0.73025 -0.29475 0.29035 0 0.53375 0.09825 0.73025 0.29475 0.1965 0.19645 0.29475 0.4399 0.29475 0.73025 0 0.2905 -0.09825 0.5339 -0.29475 0.73025 -0.1965 0.1965 -0.4399 0.29475 -0.73025 0.29475Zm4.25 0c-0.29035 0 -0.53375 -0.09825 -0.73025 -0.29475 -0.1965 -0.19635 -0.29475 -0.43975 -0.29475 -0.73025 0 -0.29035 0.09825 -0.5338 0.29475 -0.73025 0.1965 -0.1965 0.4399 -0.29475 0.73025 -0.29475 0.29035 0 0.53375 0.09825 0.73025 0.29475 0.1965 0.19645 0.29475 0.4399 0.29475 0.73025 0 0.2905 -0.09825 0.5339 -0.29475 0.73025 -0.1965 0.1965 -0.4399 0.29475 -0.73025 0.29475Zm4.25 0c-0.29035 0 -0.53375 -0.09825 -0.73025 -0.29475 -0.1965 -0.19635 -0.29475 -0.43975 -0.29475 -0.73025 0 -0.29035 0.09825 -0.5338 0.29475 -0.73025 0.1965 -0.1965 0.4399 -0.29475 0.73025 -0.29475 0.29035 0 0.53375 0.09825 0.73025 0.29475 0.1965 0.19645 0.29475 0.4399 0.29475 0.73025 0 0.2905 -0.09825 0.5339 -0.29475 0.73025 -0.1965 0.1965 -0.4399 0.29475 -0.73025 0.29475Z" stroke-width="0.5"/></svg>