<svg id="Thunderstorm--Streamline-Carbon" xmlns="http://www.w3.org/2000/svg" viewBox="0 0 16 16"><desc>Thunderstorm Streamline Icon: https://streamlinehq.com</desc><defs/><title>cloud--lightning</title><path d="M11.75 11H11.5v-1h0.25a2.25 2.25 0 0 0 0.18 -4.5L11.5 5.5l-0.05 -0.41a3.5 3.5 0 0 0 -6.94 0L4.5 5.5l-0.43 0a2.25 2.25 0 0 0 0.18 4.5H4.5v1h-0.25A3.25 3.25 0 0 1 3.6 4.57a4.5 4.5 0 0 1 8.8 0A3.25 3.25 0 0 1 11.75 11Z" fill="#000000" stroke-width="0.5"/><path d="m7.935 15.25 -0.87 -0.5 1.575 -2.75 -3 0 2.425 -4.25 0.87 0.5 -1.575 2.75 3 0 -2.425 4.25z" fill="#000000" stroke-width="0.5"/><path id="_Transparent_Rectangle_" d="M0 0h16v16H0Z" fill="none" stroke-width="0.5"/></svg>