<svg xmlns="http://www.w3.org/2000/svg" fill="none" viewBox="0 0 16 16" id="Devices--Streamline-Carbon"><desc>Devices Streamline Icon: https://streamlinehq.com</desc><path fill="#000000" d="M5 15H2c-0.265215 0 -0.51957 -0.10535 -0.707105 -0.2929C1.105355 14.51955 1 14.2652 1 14V8c0 -0.2652 0.105355 -0.51955 0.292895 -0.7071C1.48043 7.10535 1.734785 7 2 7h3c0.2652 0 0.51955 0.10535 0.7071 0.2929S6 7.7348 6 8v6c0 0.2652 -0.10535 0.51955 -0.2929 0.7071S5.2652 15 5 15ZM2 8v6h3V8H2Z" stroke-width="0.5"/><path fill="#000000" d="M14 2H3c-0.265215 0 -0.51957 0.105355 -0.707105 0.292895C2.105355 2.48043 2 2.734785 2 3v3h1V3h11v7H7v1h1v2h-1v1h4.5v-1h-2.5v-2h5c0.2652 0 0.51955 -0.10535 0.7071 -0.2929S15 10.2652 15 10V3c0 -0.265215 -0.10535 -0.51957 -0.2929 -0.707105C14.51955 2.105355 14.2652 2 14 2Z" stroke-width="0.5"/></svg>