<svg id="Flash-Off--Streamline-Carbon" xmlns="http://www.w3.org/2000/svg" viewBox="0 0 16 16" height="16" width="16">
  <desc>
    Flash Off Streamline Icon: https://streamlinehq.com
  </desc>
  <defs></defs>
  <title>flash--off</title>
  <path d="M5.565 3.445 5.9 2h4l-1 4.5H11.5l-1.245 1.625 0.715 0.715 1.935 -2.535a0.5 0.5 0 0 0 0.055 -0.5A0.5 0.5 0 0 0 12.5 5.5h-2.375L11 1.61a0.5 0.5 0 0 0 -0.1 -0.425A0.5 0.5 0 0 0 10.5 1H5.5a0.5 0.5 0 0 0 -0.5 0.385l-0.27 1.225Z" fill="#000000" stroke-width="0.5"></path>
  <path d="m15 14.295 -4.655 -4.655 -0.71 -0.715 -4.335 -4.33 -0.835 -0.835L1.705 1 1 1.705l3.2 3.205L3.5 7.885A0.5 0.5 0 0 0 4 8.5h2.415L5.5 14.425a0.5 0.5 0 0 0 0.3 0.535 0.545 0.545 0 0 0 0.2 0.04 0.5 0.5 0 0 0 0.395 -0.195l3.34 -4.365L14.295 15ZM4.63 7.5l0.405 -1.76L6.795 7.5Zm2.16 5.14L7.5 8.185l1.5 1.54Z" fill="#000000" stroke-width="0.5"></path>
  <path id="_Transparent_Rectangle_" d="M0 0h16v16H0Z" fill="none" stroke-width="0.5"></path>
</svg>