<svg id="Kubelet--Streamline-Carbon" xmlns="http://www.w3.org/2000/svg" viewBox="0 0 16 16" height="16" width="16">
  <desc>
    Kubelet Streamline Icon: https://streamlinehq.com
  </desc>
  <defs></defs>
  <path d="m10.0222 13.6471 -1.54125 -5.009 -0.5066 1.52C7.9063 10.3623 7.7152 10.5 7.5 10.5H4.5l0 -1h2.63965l0.886 -2.6581c0.06535 -0.20615 0.2581 -0.3451 0.47435 -0.3419 0.2187 0.0023 0.41125 0.14455 0.47775 0.3529l1.5044 4.88915 0.5371 -1.87945C11.0806 9.64795 11.2768 9.5 11.5 9.5h2.5l0 1h-2.1228l-0.89665 3.13735c-0.0608 0.2128 -0.25425 0.36035 -0.47555 0.36265H10.5c-0.21945 0 -0.41325 -0.14315 -0.4778 -0.3529Z" stroke-width="0.5" fill="#000000"></path>
  <path d="M8 14H3c-0.5514 0 -1 -0.4486 -1 -1V3c0 -0.5514 0.4486 -1 1 -1h10c0.5514 0 1 0.4486 1 1v4.5h-1V3H3v10h5v1Z" stroke-width="0.5" fill="#000000"></path>
  <path id="_Transparent_Rectangle_" d="M0 0h16v16H0Z" stroke-width="0.5" fill="none"></path>
</svg>