<svg id="Split--Streamline-Carbon" xmlns="http://www.w3.org/2000/svg" viewBox="0 0 16 16" height="16" width="16">
  <desc>
    Split Streamline Icon: https://streamlinehq.com
  </desc>
  <defs></defs>
  <title>split</title>
  <path d="M7.5 10h1v2h-1Z" fill="#000000" stroke-width="0.5"></path>
  <path d="M7.5 7h1v2h-1Z" fill="#000000" stroke-width="0.5"></path>
  <path d="M7.5 4h1v2h-1Z" fill="#000000" stroke-width="0.5"></path>
  <path d="M14 8A6.005 6.005 0 0 0 8.5 2.0254V1h-1v1.0254a5.995 5.995 0 0 0 0 11.9492V15h1v-1.0254A6.005 6.005 0 0 0 14 8ZM8 13a5 5 0 1 1 5 -5 5.0057 5.0057 0 0 1 -5 5Z" fill="#000000" stroke-width="0.5"></path>
  <path id="_Transparent_Rectangle_" d="M0 0h16v16H0Z" fill="none" stroke-width="0.5"></path>
</svg>