<svg xmlns="http://www.w3.org/2000/svg" fill="none" viewBox="0 0 24 24" id="Stylus-Laser-Pointer--Streamline-Sharp-Material" height="24" width="24">
  <desc>
    Stylus Laser Pointer Streamline Icon: https://streamlinehq.com
  </desc>
  <path fill="#000000" d="M9 21.9999c-0.76665 0 -1.41665 -0.26665 -1.95 -0.8s-0.8 -1.18335 -0.8 -1.95 0.26665 -1.41665 0.8 -1.95 1.18335 -0.8 1.95 -0.8 1.41665 0.26665 1.95 0.8 0.8 1.18335 0.8 1.95 -0.26665 1.41665 -0.8 1.95 -1.18335 0.8 -1.95 0.8Zm4.225 -3.3c-0.1 -0.76665 -0.37915 -1.44585 -0.8375 -2.0375 -0.45835 -0.59165 -1.02915 -1.02915 -1.7125 -1.3125l3.3 -3.35H5.65c-0.48335 0 -0.879165 -0.19165 -1.1875 -0.575 -0.308335 -0.38335 -0.4625 -0.825 -0.4625 -1.325 0 -0.3 0.075 -0.575 0.225 -0.825 0.15 -0.25 0.35 -0.45 0.6 -0.6l12.45 -7.5c0.23335 -0.15 0.4875 -0.1875 0.7625 -0.1125 0.275 0.075 0.47915 0.22917 0.6125 0.4625 0.13335 0.233335 0.17085 0.4875 0.1125 0.7625 -0.05835 0.275 -0.20415 0.47917 -0.4375 0.6125l-10.475 6.35h10.5c0.45 0 0.8375 0.1625 1.1625 0.4875 0.325 0.325 0.4875 0.7125 0.4875 1.1625 0 0.28335 -0.03335 0.55415 -0.1 0.8125 -0.06665 0.25835 -0.19165 0.47915 -0.375 0.6625l-6.3 6.325Z" stroke-width="0.5"></path>
</svg>