<svg id="Thunderstorm-Strong--Streamline-Carbon" xmlns="http://www.w3.org/2000/svg" viewBox="0 0 16 16" height="16" width="16">
  <desc>
    Thunderstorm Strong Streamline Icon: https://streamlinehq.com
  </desc>
  <defs></defs>
  <title>thunderstorm--strong</title>
  <path d="M10.5 15a0.5 0.5 0 0 1 -0.4472 -0.7237l1 -2.00025a0.5 0.5 0 1 1 0.8944 0.44735l-1 2A0.49905 0.49905 0 0 1 10.5 15Z" fill="#000000" stroke-width="0.5"></path>
  <path d="M4.5 16a0.5 0.5 0 0 1 -0.4472 -0.7237l1 -2.00025a0.5 0.5 0 1 1 0.8944 0.44735l-1 2A0.49905 0.49905 0 0 1 4.5 16Z" fill="#000000" stroke-width="0.5"></path>
  <path d="m7.9505 15.248 -0.868 -0.496L8.655 12l-3 0 2.4275 -4.248 0.868 0.496L7.378 11l3.0005 0 -2.428 4.248z" fill="#000000" stroke-width="0.5"></path>
  <path d="M12.4004 4.5681a4.49715 4.49715 0 0 0 -8.8003 0 3.24645 3.24645 0 0 0 0.115 6.38405L3.053 12.27635a0.5 0.5 0 1 0 0.89425 0.4473l1 -2a0.5 0.5 0 0 0 -0.2235 -0.6709A0.4893 0.4893 0 0 0 4.5 10.005V10h-0.25a2.24875 2.24875 0 0 1 -0.178 -4.4905l0.40775 -0.03195 0.04955 -0.406a3.4969 3.4969 0 0 1 6.9419 0l0.0493 0.406 0.4077 0.03195A2.24875 2.24875 0 0 1 11.75 10H11.5v1h0.25a3.2487 3.2487 0 0 0 0.6504 -6.4319Z" fill="#000000" stroke-width="0.5"></path>
  <path id="_Transparent_Rectangle_" d="M0 0h16v16H0Z" fill="none" stroke-width="0.5"></path>
</svg>