<svg xmlns="http://www.w3.org/2000/svg" fill="#000000" class="bi bi-building-fill-slash" viewBox="0 0 16 16" id="Building-Fill-Slash--Streamline-Bootstrap" height="16" width="16">
  <desc>
    Building Fill Slash Streamline Icon: https://streamlinehq.com
  </desc>
  <path d="M13.879 10.414a2.501 2.501 0 0 0 -3.465 3.465zm0.707 0.707 -3.465 3.465a2.501 2.501 0 0 0 3.465 -3.465m-4.56 -1.096a3.5 3.5 0 1 1 4.949 4.95 3.5 3.5 0 0 1 -4.95 -4.95Z" stroke-width="1"></path>
  <path d="M2 1a1 1 0 0 1 1 -1h10a1 1 0 0 1 1 1v7.256A4.5 4.5 0 0 0 12.5 8a4.5 4.5 0 0 0 -3.59 1.787A0.5 0.5 0 0 0 9 9.5v-1a0.5 0.5 0 0 0 -0.5 -0.5h-1a0.5 0.5 0 0 0 -0.5 0.5v1a0.5 0.5 0 0 0 0.5 0.5h1a0.5 0.5 0 0 0 0.39 -0.187A4.5 4.5 0 0 0 8.027 12H6.5a0.5 0.5 0 0 0 -0.5 0.5V16H3a1 1 0 0 1 -1 -1zm2 1.5v1a0.5 0.5 0 0 0 0.5 0.5h1a0.5 0.5 0 0 0 0.5 -0.5v-1a0.5 0.5 0 0 0 -0.5 -0.5h-1a0.5 0.5 0 0 0 -0.5 0.5m3 0v1a0.5 0.5 0 0 0 0.5 0.5h1a0.5 0.5 0 0 0 0.5 -0.5v-1a0.5 0.5 0 0 0 -0.5 -0.5h-1a0.5 0.5 0 0 0 -0.5 0.5m3.5 -0.5a0.5 0.5 0 0 0 -0.5 0.5v1a0.5 0.5 0 0 0 0.5 0.5h1a0.5 0.5 0 0 0 0.5 -0.5v-1a0.5 0.5 0 0 0 -0.5 -0.5zM4 5.5v1a0.5 0.5 0 0 0 0.5 0.5h1a0.5 0.5 0 0 0 0.5 -0.5v-1a0.5 0.5 0 0 0 -0.5 -0.5h-1a0.5 0.5 0 0 0 -0.5 0.5M7.5 5a0.5 0.5 0 0 0 -0.5 0.5v1a0.5 0.5 0 0 0 0.5 0.5h1a0.5 0.5 0 0 0 0.5 -0.5v-1a0.5 0.5 0 0 0 -0.5 -0.5zm2.5 0.5v1a0.5 0.5 0 0 0 0.5 0.5h1a0.5 0.5 0 0 0 0.5 -0.5v-1a0.5 0.5 0 0 0 -0.5 -0.5h-1a0.5 0.5 0 0 0 -0.5 0.5M4.5 8a0.5 0.5 0 0 0 -0.5 0.5v1a0.5 0.5 0 0 0 0.5 0.5h1a0.5 0.5 0 0 0 0.5 -0.5v-1a0.5 0.5 0 0 0 -0.5 -0.5z" stroke-width="1"></path>
</svg>