<svg xmlns="http://www.w3.org/2000/svg" viewBox="0 0 24 24" fill="none" stroke="#000000" stroke-linecap="round" stroke-linejoin="round" id="Hexagonal-Pyramid-Off--Streamline-Tabler"><desc>Hexagonal Pyramid Off Streamline Icon: https://streamlinehq.com</desc><path d="m7.877 7.88 -4.56 7.53a1.988 1.988 0 0 0 0.266 2.484l2.527 2.523c0.374 0.373 0.88 0.583 1.408 0.583h8.964c0.528 0 1.034 -0.21 1.408 -0.583l1.264 -1.263m1.792 -2.205a1.986 1.986 0 0 0 -0.262 -1.538L12.838 2.457a0.996 0.996 0 0 0 -1.676 0L9.39 5.383" stroke-width="2"/><path d="m12 2 -1.254 4.742m-0.841 3.177L7 20.9" stroke-width="2"/><path d="m12 2 2.153 8.14m1.444 5.457L17 20.9" stroke-width="2"/><path d="m3 3 18 18" stroke-width="2"/></svg>