<svg xmlns="http://www.w3.org/2000/svg" fill="none" viewBox="0 0 24 24" id="Missing-Controller--Streamline-Rounded-Material" height="24" width="24">
  <desc>
    Missing Controller Streamline Icon: https://streamlinehq.com
  </desc>
  <path fill="#000000" d="m4.999805 3.85 -1.075 -1.075c1.349995 -1.016665 2.679145 -1.733335 3.987495 -2.15C9.22065 0.2083335 10.58315 0 11.9998 0c1.41665 0 2.77915 0.2083335 4.0875 0.625 1.30835 0.416665 2.6375 1.133335 3.9875 2.15l-1.075 1.075c-1.05 -0.8 -2.14165 -1.391665 -3.275 -1.775S13.3498 1.5 11.9998 1.5s-2.59165 0.191665 -3.725 0.575 -2.225 0.975 -3.274995 1.775Zm3.149995 3.325 -1.075 -1.075c0.65 -0.5 1.3875 -0.89165 2.2125 -1.175 0.825 -0.283335 1.72915 -0.425 2.7125 -0.425s1.8875 0.141665 2.7125 0.425c0.825 0.28335 1.5625 0.675 2.2125 1.175l-1.075 1.075c-0.51665 -0.35 -1.10415 -0.63335 -1.7625 -0.85s-1.35415 -0.325 -2.0875 -0.325 -1.42915 0.10835 -2.0875 0.325 -1.24585 0.5 -1.7625 0.85Zm3.85 16.825c-1 0 -1.85 -0.35 -2.55 -1.05 -0.7 -0.7 -1.05 -1.55 -1.05 -2.55V12.6c0 -1 0.35 -1.85 1.05 -2.55 0.7 -0.7 1.55 -1.05 2.55 -1.05 1 0 1.85 0.35 2.55 1.05 0.7 0.7 1.05 1.55 1.05 2.55v7.8c0 1 -0.35 1.85 -1.05 2.55 -0.7 0.7 -1.55 1.05 -2.55 1.05Zm0 -9.1c0.65 0 1.19585 -0.22085 1.6375 -0.6625 0.44165 -0.44165 0.6625 -0.9875 0.6625 -1.6375 0 -0.65 -0.22085 -1.19585 -0.6625 -1.6375 -0.44165 -0.44165 -0.9875 -0.6625 -1.6375 -0.6625 -0.65 0 -1.19585 0.22085 -1.6375 0.6625 -0.44165 0.44165 -0.6625 0.9875 -0.6625 1.6375 0 0.65 0.22085 1.19585 0.6625 1.6375 0.44165 0.44165 0.9875 0.6625 1.6375 0.6625Z" stroke-width="0.5"></path>
</svg>